<svg xmlns="http://www.w3.org/2000/svg" width="121.597" height="121.561" viewBox="0 0 121.597 121.561">
  <g id="ifc-logo" transform="translate(-618.761 -196.658)">
    <path id="Path_2661" data-name="Path 2661" d="M878.168,1072.854l30.951-30.943-25.674-25.675-8.059,8.075-10.367-10.368a1.657,1.657,0,0,0,.67-.283c3.144-3.114,6.265-6.252,9.4-9.376a11.685,11.685,0,0,1,16.862-.063q14.679,14.6,29.281,29.284a11.659,11.659,0,0,1-.108,16.726l-24.5,24.5a11.734,11.734,0,0,1-16.539.041C879.463,1074.149,878.843,1073.527,878.168,1072.854Z" transform="translate(-186.057 -804)" fill="#dc0224"/>
    <path id="Path_2662" data-name="Path 2662" d="M778.731,1356.73l31.05,31.055,25.586-25.721-8.182-8.08,10.15-10.148c.123.115.318.288.5.472q4.789,4.787,9.574,9.577a11.6,11.6,0,0,1,.163,16.408q-14.822,14.96-29.785,29.78a11.516,11.516,0,0,1-16.195-.048q-12.522-12.409-24.932-24.93a11.659,11.659,0,0,1,.07-16.292C777.37,1358.156,777.992,1357.5,778.731,1356.73Z" transform="translate(-110.535 -1086.814)" fill="#0093a8"/>
    <path id="Path_2663" data-name="Path 2663" d="M579.113,1256.583l-30.961,30.961,25.629,25.632,8.157-8.167,10.143,10.144c-1.12,1.113-2.3,2.284-3.482,3.461q-3.36,3.355-6.716,6.713a11.611,11.611,0,0,1-16.32-.008q-14.745-14.725-29.472-29.468a11.684,11.684,0,0,1-.091-16.606q12.244-12.315,24.555-24.562a11.481,11.481,0,0,1,8.413-3.5,11.258,11.258,0,0,1,8,3.219C577.684,1255.086,578.362,1255.815,579.113,1256.583Z" transform="translate(87.906 -1010.453)" fill="#aa007c"/>
    <path id="Path_2664" data-name="Path 2664" d="M594.932,1057.027l-30.984-30.994-25.521,25.52,8.123,8.117-10.221,10.221c.068.02,0,.021-.036-.013-3.557-3.571-7.219-7.045-10.638-10.743a11.5,11.5,0,0,1,.383-15.668q14.882-14.962,29.845-29.842a11.664,11.664,0,0,1,16.151.051q12.541,12.454,24.994,24.995a11.752,11.752,0,0,1-.28,16.5C596.18,1055.757,595.6,1056.339,594.932,1057.027Z" transform="translate(96 -812.03)" fill="#004d95"/>
    <path id="Path_2665" data-name="Path 2665" d="M672.129,1312.843l23.249-23.249,10.111,9.992c-.161.169-.308.329-.462.482q-7.052,7.053-14.1,14.11a12.049,12.049,0,0,1-6.465,3.592,11.586,11.586,0,0,1-10.455-3.164C673.369,1314,672.729,1313.406,672.129,1312.843Z" transform="translate(-27.095 -1042.114)" fill="#004d95"/>
    <path id="Path_2666" data-name="Path 2666" d="M885.466,1270.092l-10.142-10.147c.194-.208.4-.439.615-.656q7.114-7.119,14.233-14.235a11.677,11.677,0,0,1,16.791.036c.559.558,1.144,1.09,1.772,1.686Z" transform="translate(-194.55 -1002.488)" fill="#0093a8"/>
    <path id="Path_2667" data-name="Path 2667" d="M792.2,1173.7l-10.121,10.124a6.189,6.189,0,0,0-.6-.825c-4.615-4.629-9.219-9.269-13.867-13.865a11.83,11.83,0,0,1-3.733-9.794,11.37,11.37,0,0,1,3.1-6.892c.655-.711,1.352-1.383,1.962-2Z" transform="translate(-102.667 -927.443)" fill="#dc0224"/>
    <path id="Path_2668" data-name="Path 2668" d="M822.138,1353.68c5.122,5.093,10.345,10.147,15.405,15.361,4.127,4.252,3.9,11.592-.269,15.817-.657.665-1.288,1.354-1.858,1.955l-23.206-23.206Z" transform="translate(-142.537 -1094.927)" fill="#aa007c"/>
  </g>
</svg>
